<?xml version="1.0" standalone="no"?><!DOCTYPE svg PUBLIC "-//W3C//DTD SVG 1.1//EN" "http://www.w3.org/Graphics/SVG/1.1/DTD/svg11.dtd"><svg t="1569373324093" class="icon" viewBox="0 0 1024 1024" version="1.1" xmlns="http://www.w3.org/2000/svg" p-id="2026" width="30" height="30" xmlns:xlink="http://www.w3.org/1999/xlink"><defs><style type="text/css"></style></defs><path d="M912 262v500c0 41.3-14.7 76.7-44 106s-64.6 44-106 44H262.1c-41.3 0-76.7-14.7-106-44s-44-64.6-44-106V262c0-41.3 14.7-76.7 44-106s64.6-44 106-44h500c41.3 0 76.7 14.7 106 44 29.2 29.3 43.9 64.7 43.9 106zM468.7 721.9l319.7-319.7c6.6-6.6 9.9-14.3 9.9-23.4 0-9-3.3-16.9-9.9-23.4l-53-53.2c-6.6-6.6-14.5-9.9-23.4-9.9-9 0-16.9 3.3-23.4 9.9l-243.2 243-110-109.9c-6.6-6.6-14.5-9.9-23.4-9.9-9 0-16.9 3.3-23.4 9.9l-53.1 53.1c-6.6 6.6-9.9 14.5-9.9 23.4s3.3 16.9 9.9 23.4l186.4 186.4c6.6 6.6 14.3 9.9 23.4 9.9 9.1 0.3 16.9-3 23.4-9.6z" p-id="2027" fill="#009688"></path></svg>